# xmcd
#
# Track frame offsets: 
#        150
#        19717
#        54075
#        83997
#        97652
#        111365
#        129672
#        146792
#
# Disc length: 2155 seconds
#
# Revision: 0
# Processed by: cddbd v1.5.1PL0 Copyright (c) Steve Scherf et al.
# Submitted via: ExactAudioCopy v0.95a5
#
DISCID=61086908
DTITLE=Barrino Brothers - Livin' High Off The Goodness Off Your Love
DYEAR=1973
DGENRE=R&B
TTITLE0=I Had It All
TTITLE1=It Doesn't Have To Be That Way
TTITLE2=Rain
TTITLE3=Try It, You'll Like It
TTITLE4=I Can't Believe You're Gone
TTITLE5=Livin' High Off The Goodness Off Your Love
TTITLE6=When Love Was A Child
TTITLE7=Well Worth Waiting For Your Love
EXTD=
EXTT0=
EXTT1=
EXTT2=
EXTT3=
EXTT4=
EXTT5=
EXTT6=
EXTT7=
PLAYORDER=
